custom-analysis
version=1
nRows=4
nColumns=98
inDegrees=no

This file contains tibia displacement and acting force.

Units are S.I. units (seconds, meters, Newtons, ...)
Angles are in degrees.

endheader
time	APT	SIT	knee_angle	aACL_R_force	pACL_R_force	aPCL_R_force	pPCL_R_force	aMCL_R_force	mMCL_R_force	pMCL_R_force	aLCL_R_force	mLCL_R_force	pLCL_R_force	aPCL_L_force	pPCL_L_force	aMCL_L_force	aLCL_L_force	aACL_R_length	pACL_R_length	aPCL_R_length	pPCL_R_length	aMCL_R_length	mMCL_R_length	pMCL_R_length	aLCL_R_length	mLCL_R_length	pLCL_R_length	aPCL_L_length	pPCL_L_length	aMCL_L_length	aLCL_L_length	aACL_R_strain	pACL_R_strain	aPCL_R_strain	pPCL_R_strain	aMCL_R_strain	mMCL_R_strain	pMCL_R_strain	aLCL_R_strain	mLCL_R_strain	pLCL_R_strain	aPCL_L_strain	pPCL_L_strain	aMCL_L_strain	aLCL_L_strain	femur_lat_meniscii_r.femur_lat_r.force.X	femur_lat_meniscii_r.femur_lat_r.force.Y	femur_lat_meniscii_r.femur_lat_r.force.Z	femur_lat_meniscii_r.femur_lat_r.torque.X	femur_lat_meniscii_r.femur_lat_r.torque.Y	femur_lat_meniscii_r.femur_lat_r.torque.Z	femur_lat_meniscii_r.meniscus_lat_r.force.X	femur_lat_meniscii_r.meniscus_lat_r.force.Y	femur_lat_meniscii_r.meniscus_lat_r.force.Z	femur_lat_meniscii_r.meniscus_lat_r.torque.X	femur_lat_meniscii_r.meniscus_lat_r.torque.Y	femur_lat_meniscii_r.meniscus_lat_r.torque.Z	femur_med_meniscii_r.femur_med_r.force.X	femur_med_meniscii_r.femur_med_r.force.Y	femur_med_meniscii_r.femur_med_r.force.Z	femur_med_meniscii_r.femur_med_r.torque.X	femur_med_meniscii_r.femur_med_r.torque.Y	femur_med_meniscii_r.femur_med_r.torque.Z	femur_med_meniscii_r.meniscus_med_r.force.X	femur_med_meniscii_r.meniscus_med_r.force.Y	femur_med_meniscii_r.meniscus_med_r.force.Z	femur_med_meniscii_r.meniscus_med_r.torque.X	femur_med_meniscii_r.meniscus_med_r.torque.Y	femur_med_meniscii_r.meniscus_med_r.torque.Z	femur_med_tibia_r.tibia_upper_r.force.X	femur_med_tibia_r.tibia_upper_r.force.Y	femur_med_tibia_r.tibia_upper_r.force.Z	femur_med_tibia_r.tibia_upper_r.torque.X	femur_med_tibia_r.tibia_upper_r.torque.Y	femur_med_tibia_r.tibia_upper_r.torque.Z	femur_med_tibia_r.femur_med_r.force.X	femur_med_tibia_r.femur_med_r.force.Y	femur_med_tibia_r.femur_med_r.force.Z	femur_med_tibia_r.femur_med_r.torque.X	femur_med_tibia_r.femur_med_r.torque.Y	femur_med_tibia_r.femur_med_r.torque.Z	femur_lat_tibia_r.tibia_upper_r.force.X	femur_lat_tibia_r.tibia_upper_r.force.Y	femur_lat_tibia_r.tibia_upper_r.force.Z	femur_lat_tibia_r.tibia_upper_r.torque.X	femur_lat_tibia_r.tibia_upper_r.torque.Y	femur_lat_tibia_r.tibia_upper_r.torque.Z	femur_lat_tibia_r.femur_lat_r.force.X	femur_lat_tibia_r.femur_lat_r.force.Y	femur_lat_tibia_r.femur_lat_r.force.Z	femur_lat_tibia_r.femur_lat_r.torque.X	femur_lat_tibia_r.femur_lat_r.torque.Y	femur_lat_tibia_r.femur_lat_r.torque.Z	femur_lat_meniscii_force_r	femur_med_meniscii_force_r	femur_lat_tibia_force_r	femur_med_tibia_force_r
      0.08119896	      0.00851311	      0.00450422	     16.85972032	     62.86899391	     42.12023190	      0.00000000	      0.00000000	      0.00000000	     -4.64171397	    -27.01898173	      0.00000000	      0.00000000	      0.00000000	      0.00000000	      0.00000000	      0.00000001	      0.00000000	      0.03367303	      0.02695056	      0.02811281	      0.02785666	      0.05667228	      0.05995813	      0.06059192	      0.05331932	      0.05097045	      0.04812979	      0.01525851	      0.01651186	      0.06550154	      0.04489616	      0.08603406	      0.07549706	     -0.09591450	     -0.06795877	     -0.05588687	      0.00275327	      0.03173811	     -0.04748151	     -0.09496242	     -0.08048711	      0.00000079	     -0.32847694	      0.00000060	     -0.00000086	     67.95900801	    330.39343830	     27.12250584	    -19.11188950	      1.65186991	     28.07349122	    -67.95900801	   -330.39343830	    -27.12250584	      9.83789563	     -2.11394931	      0.79255200	     40.36844825	    173.90177381	      3.70122236	      2.09350357	     -0.78410427	     16.10186613	    -40.36844825	   -173.90177381	     -3.70122236	     -2.92294750	      0.61577436	      0.85367667	    -13.59059311	   -495.72626502	     55.87832046	    -10.29759906	      0.58473502	      3.02567735	     13.59059311	    495.72626502	    -55.87832046	     33.38689249	     -0.15277878	      6.42215927	      5.47945770	   -264.80343567	    -52.92989389	      8.79633334	     -0.20931524	      1.96984240	     -5.47945770	    264.80343567	     52.92989389	    -28.18103950	     -0.22488184	     -1.80435556	    338.39899699	    178.56409940	    270.09712636	    499.05071962
      0.08224800	      0.00865863	      0.00459888	     17.23693044	     63.24009543	     41.53702044	      0.00000000	      0.00000000	      0.00000000	     -4.76455141	    -27.76903863	      0.00000000	      0.00000000	      0.00000000	      0.00000000	      0.00000000	      0.00000001	      0.00000000	      0.03369217	      0.02694828	      0.02814078	      0.02786133	      0.05670775	      0.05995132	      0.06054183	      0.05329929	      0.05092692	      0.04806049	      0.01525851	      0.01651186	      0.06550154	      0.04489616	      0.08665133	      0.07540602	     -0.09501489	     -0.06780256	     -0.05529591	      0.00263937	      0.03088523	     -0.04783922	     -0.09573531	     -0.08181103	      0.00000079	     -0.32847694	      0.00000060	     -0.00000086	     67.47427452	    332.13577677	     27.82846712	    -19.43651174	      1.64125047	     27.84363237	    -67.47427452	   -332.13577677	    -27.82846712	      9.89438200	     -2.11211133	      0.91246172	     37.76676202	    173.31252530	      4.04527252	      1.92394396	     -0.71336339	     14.98267495	    -37.76676202	   -173.31252530	     -4.04527252	     -2.88890502	      0.55052510	      1.00274230	    -12.60228131	   -491.00854310	     54.19787182	    -10.14035714	      0.57489370	      3.19636608	     12.60228131	    491.00854310	    -54.19787182	     32.56592683	     -0.14406976	      5.92117960	      5.37051703	   -259.92889397	    -51.84543332	      8.62753373	     -0.22053742	      2.00698766	     -5.37051703	    259.92889397	     51.84543332	    -27.61640312	     -0.21415555	     -1.79464072	    340.06084090	    177.42582667	    265.10341629	    494.15141020
      0.08329703	      0.00880342	      0.00469590	     17.61757742	     63.25573764	     40.58374164	      0.00000000	      0.00000000	      0.00000000	     -5.31702196	    -28.92487049	      0.00000000	      0.00000000	      0.00000000	      0.00000000	      0.00000000	      0.00000001	      0.00000000	      0.03371001	      0.02694460	      0.02816912	      0.02786628	      0.05674298	      0.05994403	      0.06049095	      0.05327788	      0.05088182	      0.04798946	      0.01525851	      0.01651186	      0.06550154	      0.04489616	      0.08722682	      0.07525942	     -0.09410357	     -0.06763681	     -0.05470904	      0.00251750	      0.03001882	     -0.04822174	     -0.09653612	     -0.08316811	      0.00000079	     -0.32847694	      0.00000060	     -0.00000086	     68.70274365	    338.54143757	     28.90379027	    -20.06027994	      1.69228226	     28.34453314	    -68.70274365	   -338.54143757	    -28.90379027	     10.12403042	     -2.18124028	      1.00041253	     35.92362408	    175.77257219	      4.11947874	      1.93415567	     -0.65616559	     14.17103846	    -35.92362408	   -175.77257219	     -4.11947874	     -2.92100608	      0.49850499	      1.16188474	    -10.68819292	   -486.94286042	     52.22052285	     -9.97963571	      0.54743130	      3.40783999	     10.68819292	    486.94286042	    -52.22052285	     31.62984534	     -0.11787764	      5.02887568	      5.30853919	   -256.48361294	    -51.33130010	      8.51913823	     -0.23352894	      2.05323764	     -5.30853919	    256.48361294	     51.33130010	    -27.32586451	     -0.20620800	     -1.80097296	    346.64939208	    179.45326413	    261.62363553	    489.85157935
      0.08415943	      0.00892134	      0.00477743	     17.93295321	     63.51159259	     40.03423872	      0.00000000	      0.00000000	      0.00000000	     -5.49488014	    -29.58528244	      0.00000000	      0.00000000	      0.00000000	      0.00000000	      0.00000000	      0.00000001	      0.00000000	      0.03372340	      0.02694025	      0.02819294	      0.02787083	      0.05677166	      0.05993762	      0.06044848	      0.05325937	      0.05084371	      0.04792992	      0.01525851	      0.01651186	      0.06550154	      0.04489616	      0.08765876	      0.07508553	     -0.09333757	     -0.06748463	     -0.05423130	      0.00241037	      0.02929569	     -0.04855242	     -0.09721281	     -0.08430552	      0.00000079	     -0.32847694	      0.00000060	     -0.00000086	     69.10982417	    340.41006180	     30.19263033	    -20.63981099	      1.70668461	     28.49484883	    -69.10982417	   -340.41006180	    -30.19263033	     10.21270618	     -2.21238833	      1.07402298	     33.18650618	    177.32458059	      3.90409565	      2.05128636	     -0.58533063	     12.99677367	    -33.18650618	   -177.32458059	     -3.90409565	     -2.95193273	      0.43850843	      1.32779611	     -9.55104407	   -483.22563397	     51.22106619	     -9.86733519	      0.53524771	      3.55766424	      9.55104407	    483.22563397	    -51.22106619	     31.11855044	     -0.10310566	      4.48186802	      4.39579125	   -254.06425297	    -51.22008031	      8.45173941	     -0.26808155	      2.05796609	     -4.39579125	    254.06425297	     51.22008031	    -27.22677382	     -0.18136280	     -1.43991531	    348.66426960	    180.44554036	    259.21316372	    486.02657683
